<?xml version="1.0" standalone="no"?>
<!DOCTYPE svg PUBLIC "-//W3C//DTD SVG 20010904//EN"
 "http://www.w3.org/TR/2001/REC-SVG-20010904/DTD/svg10.dtd">
<svg version="1.0" xmlns="http://www.w3.org/2000/svg"
 width="1200.000000pt" height="2215.000000pt" viewBox="0 0 1200.000000 2215.000000"
 preserveAspectRatio="xMidYMid meet">
<metadata>
Created by potrace 1.16, written by Peter Selinger 2001-2019
</metadata>
<g transform="translate(0.000000,2215.000000) scale(0.100000,-0.100000)"
fill="#eee" stroke="none">
<path d="M5770 21850 c-730 -99 -1310 -634 -1452 -1342 -29 -146 -32 -450 -5
-593 77 -411 291 -762 617 -1016 613 -478 1486 -486 2108 -21 324 242 554 600
632 982 170 833 -303 1640 -1121 1913 -180 61 -298 79 -519 83 -107 1 -224 -1
-260 -6z"/>
<path d="M5475 17990 l-1030 -5 -95 -28 c-215 -63 -271 -82 -405 -134 -297
-117 -497 -237 -669 -403 -181 -175 -356 -411 -509 -686 l-67 -121 -832 -2684
-832 -2684 -4 -103 c-8 -179 34 -367 113 -507 75 -135 222 -262 375 -325 123
-51 194 -65 330 -64 109 0 134 4 192 26 103 39 173 85 253 170 79 82 150 194
190 298 14 36 331 1100 705 2365 375 1265 685 2315 691 2333 l11 32 154 0
c149 0 155 -1 149 -19 -3 -11 -526 -1855 -1161 -4098 -635 -2243 -1157 -4086
-1160 -4095 -5 -17 51 -18 1090 -18 l1096 0 0 -987 c1 -544 5 -1940 10 -3104
10 -2384 1 -2161 92 -2349 44 -92 61 -115 142 -195 74 -74 107 -99 176 -133
152 -74 217 -87 435 -87 162 0 203 4 277 22 273 69 441 220 530 474 l33 94 3
3153 2 3152 225 0 225 0 2 -3132 3 -3133 27 -72 c108 -291 279 -457 553 -535
70 -20 102 -23 265 -23 149 0 199 4 254 19 273 73 458 230 561 477 60 141 56
-111 49 3262 l-7 3087 330 0 c181 0 675 3 1097 7 l768 6 -6 26 c-2 14 -538
1864 -1190 4111 -651 2246 -1183 4086 -1182 4087 1 2 84 6 183 10 l181 6 22
-69 c11 -38 336 -1120 722 -2404 654 -2178 704 -2339 743 -2400 116 -181 278
-316 449 -377 220 -77 510 3 707 197 88 87 138 168 182 295 30 86 31 97 32
255 l0 165 -819 2720 c-450 1496 -828 2738 -839 2760 -128 258 -407 627 -600
796 -232 202 -598 392 -1034 535 l-133 44 -513 -2 c-281 -2 -975 -5 -1542 -8z"/>
</g>
</svg>
